<?xml version="1.0" encoding="utf-8"?>
<!-- Generator: Adobe Illustrator 26.0.2, SVG Export Plug-In . SVG Version: 6.00 Build 0)  -->
<svg version="1.1" id="katman_1" xmlns="http://www.w3.org/2000/svg" xmlns:xlink="http://www.w3.org/1999/xlink" x="0px" y="0px"
	 viewBox="0 0 538 538" style="enable-background:new 0 0 538 538;" xml:space="preserve">
<style type="text/css">
	.st0{fill:#FFFFFF;}
	.st1{fill:url(#SVGID_1_);}
	.st2{fill:url(#SVGID_00000065781435162855327100000011727294495066162353_);}
	.st3{fill:url(#SVGID_00000006665963359738907250000000842940864078675872_);}
	.st4{fill:url(#SVGID_00000163069742818556221520000007692882781277748096_);}
	.st5{fill:url(#SVGID_00000126308953579028441860000008737626952167372442_);}
	.st6{fill:url(#SVGID_00000047020555483084634970000012070493743746338203_);}
	.st7{fill:url(#SVGID_00000078730902017764397290000004131418787777315466_);}
	.st8{fill:url(#SVGID_00000121244369058057318050000003385686833820778939_);}
	.st9{fill:url(#SVGID_00000003811672308451035150000008903414564856283794_);}
	.st10{fill:url(#SVGID_00000016787553094900162790000012877010904718079622_);}
	.st11{fill:url(#SVGID_00000166638828200286428770000007229212236318139817_);}
	.st12{fill:url(#SVGID_00000121959015143508707550000002370444907839805339_);}
	.st13{fill:url(#SVGID_00000082361955763682462930000011359460721416906151_);}
	.st14{fill:url(#SVGID_00000162341863673820708600000006413758923845201313_);}
</style>
<g>
	<linearGradient id="SVGID_1_" gradientUnits="userSpaceOnUse" x1="302.4542" y1="438.2174" x2="302.4542" y2="100">
		<stop  offset="0" style="stop-color:#00B27F"/>
		<stop  offset="0.8575" style="stop-color:#00FFB5"/>
	</linearGradient>
	<path class="st1" d="M293.06,277.46c0.1,0.05,10.16,5.34,16.06,10.57c0.12,0.11,0.17,0.26,0.15,0.41l5.18,0.52
		c-6.25-7.47-14.54-13.19-24-16.28l2.18,4.77C292.76,277.39,292.92,277.39,293.06,277.46z"/>
	
		<linearGradient id="SVGID_00000088133557817168362910000015519632739044464806_" gradientUnits="userSpaceOnUse" x1="293.5656" y1="438.2174" x2="293.5656" y2="100">
		<stop  offset="0" style="stop-color:#00B27F"/>
		<stop  offset="0.8575" style="stop-color:#00FFB5"/>
	</linearGradient>
	<path style="fill:url(#SVGID_00000088133557817168362910000015519632739044464806_);" d="M274.46,296.99l20.75,14.34
		c0.06-0.09,0.15-0.16,0.26-0.19l17.08-4.82c0.04-0.01,0.08-0.02,0.12-0.02c-0.18-5.11-3.08-15.2-3.74-17.46
		c-0.04,0.02-0.09,0.03-0.13,0.03c-0.12,0-0.22-0.04-0.32-0.12c-5.82-5.16-15.77-10.39-15.87-10.45c-0.17-0.09-0.26-0.26-0.26-0.44
		c-5.13-0.11-15.5,1.93-17.82,2.4c0.01,0.03,0.01,0.06,0.01,0.1v16.35C274.54,296.82,274.51,296.92,274.46,296.99z"/>
	
		<linearGradient id="SVGID_00000079488232417956133900000015662640769644826525_" gradientUnits="userSpaceOnUse" x1="254.5281" y1="438.2174" x2="254.5281" y2="100">
		<stop  offset="0" style="stop-color:#00B27F"/>
		<stop  offset="0.8575" style="stop-color:#00FFB5"/>
	</linearGradient>
	<path style="fill:url(#SVGID_00000079488232417956133900000015662640769644826525_);" d="M255.24,278.32
		c-9.87,5.01-15.15,10.36-15.2,10.42c-0.09,0.1-0.22,0.14-0.34,0.14c-0.07,0-0.15-0.01-0.21-0.05c-2.11,4.55-3.75,15-4.1,17.35
		c0.02-0.01,0.04,0,0.06,0.01l17.08,4.97c0.11,0.03,0.2,0.1,0.26,0.19l20.87-14.36c-0.05-0.08-0.08-0.17-0.08-0.27v-16.35
		c0-0.03,0.01-0.06,0.01-0.1c-9.11-1.92-16.21-2.3-18.08-2.37C255.5,278.08,255.4,278.23,255.24,278.32z"/>
	
		<linearGradient id="SVGID_00000082336131511213084200000009760867828049602734_" gradientUnits="userSpaceOnUse" x1="245.6395" y1="438.2174" x2="245.6395" y2="100">
		<stop  offset="0" style="stop-color:#00B27F"/>
		<stop  offset="0.8575" style="stop-color:#00FFB5"/>
	</linearGradient>
	<path style="fill:url(#SVGID_00000082336131511213084200000009760867828049602734_);" d="M239.35,288.06
		c0.05-0.05,5.43-5.51,15.45-10.6c0.14-0.07,0.3-0.07,0.43,0.01l2.43-4.78c-9.5,3.1-17.81,8.84-24.06,16.35l5.62-0.59
		C239.21,288.31,239.25,288.17,239.35,288.06z"/>
	
		<linearGradient id="SVGID_00000140005933393070128000000004725862753656988571_" gradientUnits="userSpaceOnUse" x1="226.0389" y1="438.2174" x2="226.0389" y2="100">
		<stop  offset="0" style="stop-color:#00B27F"/>
		<stop  offset="0.8575" style="stop-color:#00FFB5"/>
	</linearGradient>
	<path style="fill:url(#SVGID_00000140005933393070128000000004725862753656988571_);" d="M225.5,324.93
		c-0.01-0.12,0.03-0.24,0.1-0.33l-4.17-3.34c-0.02,0.49-0.03,0.99-0.03,1.48c0,10,2.79,19.36,7.63,27.32l1.62-5.87
		c-0.14-0.04-0.26-0.15-0.32-0.29C226.14,333.01,225.51,325,225.5,324.93z"/>
	
		<linearGradient id="SVGID_00000031185367522585356550000013632398153541961911_" gradientUnits="userSpaceOnUse" x1="243.2126" y1="438.2174" x2="243.2126" y2="100">
		<stop  offset="0" style="stop-color:#00B27F"/>
		<stop  offset="0.8575" style="stop-color:#00FFB5"/>
	</linearGradient>
	<path style="fill:url(#SVGID_00000031185367522585356550000013632398153541961911_);" d="M260.28,336.41l-7.73-24.34
		c-0.05,0.02-0.1,0.03-0.15,0.03c-0.04,0-0.09-0.01-0.13-0.02l-17.08-4.96c-0.07-0.02-0.13-0.06-0.19-0.12
		c-3.38,3.79-7.92,15.09-8.85,17.46c0.17,0.06,0.3,0.21,0.31,0.4c0.01,0.08,0.64,7.95,4.79,18.7c0.06,0.16,0.03,0.33-0.07,0.46
		c5.28,4.03,15.07,7.67,17.27,8.45c0.01-0.04,0.04-0.08,0.06-0.12l11.53-15.76C260.1,336.5,260.18,336.44,260.28,336.41z"/>
	
		<linearGradient id="SVGID_00000097461407056913691140000017708527861236539290_" gradientUnits="userSpaceOnUse" x1="274.0581" y1="438.2174" x2="274.0581" y2="100">
		<stop  offset="0" style="stop-color:#00B27F"/>
		<stop  offset="0.8575" style="stop-color:#00FFB5"/>
	</linearGradient>
	<path style="fill:url(#SVGID_00000097461407056913691140000017708527861236539290_);" d="M284.35,368.71
		c-1.12,0.3-3.84,0.4-6.96,0.4c-5.94,0-13.31-0.37-13.77-0.39c-0.15-0.01-0.29-0.08-0.37-0.2l-5.71,4.21
		c5.19,1.72,10.75,2.65,16.53,2.65c5.77,0,11.32-0.93,16.52-2.65l-5.96-4.21C284.55,368.62,284.46,368.68,284.35,368.71z"/>
	
		<linearGradient id="SVGID_00000083060740399622086770000009952121907901961151_" gradientUnits="userSpaceOnUse" x1="273.8302" y1="438.2174" x2="273.8302" y2="100">
		<stop  offset="0" style="stop-color:#00B27F"/>
		<stop  offset="0.8575" style="stop-color:#00FFB5"/>
	</linearGradient>
	<path style="fill:url(#SVGID_00000083060740399622086770000009952121907901961151_);" d="M287.18,337.14
		c-0.06-0.08-0.09-0.18-0.09-0.28h-26.19c0,0.1-0.03,0.2-0.09,0.28l-11.53,15.77c-0.04,0.04-0.08,0.09-0.13,0.12
		c3.05,4.57,12.21,13.12,14.12,14.89c0.08-0.1,0.22-0.17,0.38-0.15c0.17,0.01,17.33,0.87,20.44,0.02c0.21-0.06,0.42,0.03,0.54,0.21
		c2.87-2,12.06-12.49,13.87-14.57c-0.03-0.03-0.06-0.06-0.08-0.09L287.18,337.14z"/>
	
		<linearGradient id="SVGID_00000119804068084815190560000002496481439351710376_" gradientUnits="userSpaceOnUse" x1="304.9452" y1="438.2174" x2="304.9452" y2="100">
		<stop  offset="0" style="stop-color:#00B27F"/>
		<stop  offset="0.8575" style="stop-color:#00FFB5"/>
	</linearGradient>
	<path style="fill:url(#SVGID_00000119804068084815190560000002496481439351710376_);" d="M316.5,343.47
		c2.56-4.26,5.32-18.53,5.34-18.68c0.03-0.17,0.16-0.31,0.32-0.37c-1.77-5.33-7.88-15.12-9.23-17.23c-0.04,0.02-0.08,0.04-0.13,0.05
		l-17.08,4.82c-0.04,0.01-0.09,0.02-0.13,0.02c-0.05,0-0.1-0.01-0.15-0.03l-7.74,24.34c0.1,0.03,0.19,0.09,0.25,0.18l11.24,16.2
		c0.03,0.04,0.04,0.08,0.06,0.12c5.12-1.78,15.11-7.67,17.24-8.94C316.41,343.83,316.41,343.64,316.5,343.47z"/>
	
		<linearGradient id="SVGID_00000169559836759014143500000012390664741360233373_" gradientUnits="userSpaceOnUse" x1="321.8879" y1="438.2174" x2="321.8879" y2="100">
		<stop  offset="0" style="stop-color:#00B27F"/>
		<stop  offset="0.8575" style="stop-color:#00FFB5"/>
	</linearGradient>
	<path style="fill:url(#SVGID_00000169559836759014143500000012390664741360233373_);" d="M322.69,324.59
		c0.08,0.11,0.12,0.24,0.1,0.39c-0.12,0.59-2.82,14.58-5.46,18.98c-0.06,0.11-0.16,0.18-0.27,0.21l1.95,5.99
		c4.89-7.99,7.7-17.38,7.7-27.43c0-0.45-0.01-0.9-0.02-1.35L322.69,324.59z"/>
	
		<linearGradient id="SVGID_00000162315689361139509320000011067668045906484899_" gradientUnits="userSpaceOnUse" x1="358.073" y1="438.2174" x2="358.073" y2="100">
		<stop  offset="0" style="stop-color:#00B27F"/>
		<stop  offset="0.8575" style="stop-color:#00FFB5"/>
	</linearGradient>
	<path style="fill:url(#SVGID_00000162315689361139509320000011067668045906484899_);" d="M353.57,209.32
		c-1.67,2.49-1.01,5.85,1.48,7.52c2.49,1.67,5.85,1.01,7.52-1.48c1.67-2.49,1.01-5.85-1.48-7.52
		C358.61,206.17,355.24,206.83,353.57,209.32z"/>
	
		<linearGradient id="SVGID_00000096055199953983752870000014150873823571860119_" gradientUnits="userSpaceOnUse" x1="340.9069" y1="438.2174" x2="340.9069" y2="100">
		<stop  offset="0" style="stop-color:#00B27F"/>
		<stop  offset="0.8575" style="stop-color:#00FFB5"/>
	</linearGradient>
	<path style="fill:url(#SVGID_00000096055199953983752870000014150873823571860119_);" d="M338.09,200.23
		c-1.04,1.55-0.63,3.66,0.92,4.7c1.55,1.04,3.66,0.63,4.7-0.92c1.04-1.55,0.63-3.66-0.92-4.7S339.14,198.67,338.09,200.23z"/>
	
		<linearGradient id="SVGID_00000168109856557921479910000000662826444167996331_" gradientUnits="userSpaceOnUse" x1="423.1663" y1="438.2174" x2="423.1663" y2="100">
		<stop  offset="0" style="stop-color:#00B27F"/>
		<stop  offset="0.8575" style="stop-color:#00FFB5"/>
	</linearGradient>
	<circle style="fill:url(#SVGID_00000168109856557921479910000000662826444167996331_);" cx="423.17" cy="202.43" r="18.91"/>
	
		<linearGradient id="SVGID_00000148658355059965453930000008188949079342156928_" gradientUnits="userSpaceOnUse" x1="270.6415" y1="438.2174" x2="270.6415" y2="100">
		<stop  offset="0" style="stop-color:#00B27F"/>
		<stop  offset="0.8575" style="stop-color:#00FFB5"/>
	</linearGradient>
	<path style="fill:url(#SVGID_00000148658355059965453930000008188949079342156928_);" d="M395.79,275.98l-0.18-0.38
		c-7.48-15.47-17.05-28.26-29.17-39.03c-11.14-10.09-23.95-18.1-37.84-23.86c2.02,1.77,2.47,4.78,0.94,7.07
		c-1.67,2.48-5.03,3.14-7.51,1.48c-2.48-1.67-3.14-5.03-1.48-7.51c1.09-1.62,2.89-2.45,4.71-2.38c-8.88-3.41-18.18-5.9-27.76-7.43
		c-7.47-1.2-15.1-1.84-22.84-1.84c-13.82,0-27.46,1.96-40.41,5.74c4.46-7.6,9.75-14.12,15.73-19.32
		c12.54-10.83,28.23-16.08,45.55-15.24c6.8,0.21,16.06,2.94,20.31,8.43c14.24,18.43,40.82,21.84,59.25,7.6
		c18.43-14.24,21.87-40.78,7.72-59.1c-18.63-24.51-49.88-40-83.56-41.44c-39.06-1.83-75.16,10.52-104.49,35.72
		c-28.12,24.55-47.61,59.73-56.37,101.77c-6.85,33.39-4.4,85.94,5.43,117.72c1.55,10.17,4.67,20.46,9.33,30.71l0.18,0.38
		c7.03,14.52,16.81,27.63,29.17,39.03c24.83,22.48,57.56,34.87,92.16,34.87c34.36,0,66.92-12.36,91.62-34.72
		c12.25-10.89,21.86-23.75,29.45-39.43c7.33-15.63,11.04-32.28,11.04-49.47c0-13.1-2.16-25.69-6.55-38.25
		C398.93,283.37,397.47,279.68,395.79,275.98z M326.06,233.04c2.71-4.03,8.18-5.11,12.21-2.4c4.04,2.71,5.11,8.18,2.4,12.21
		c-2.71,4.03-8.18,5.11-12.21,2.4C324.42,242.54,323.35,237.07,326.06,233.04z M296.4,226.72c10.44,0,18.91,8.47,18.91,18.91
		c0,10.44-8.47,18.91-18.91,18.91c-10.44,0-18.91-8.47-18.91-18.91C277.49,235.19,285.95,226.72,296.4,226.72z M385.24,272.68
		c-0.86,9.31-5.86,18.14-14.3,23.39c-4.66,2.9-10.01,4.5-15.47,4.63c-1.31,0.09-2.67,0.07-4.09,0c-1.41-0.07-2.88-0.19-4.38-0.32
		c-2.05-0.17-4.12-0.33-6.15-0.38c-12.02-0.16-9.84,14.27-9.84,14.27l-0.02-0.01c0.65,4.93,0.71,10.05,0.01,15.3
		c-3.55,26.81-25.95,47.81-52.93,49.7c-35.28,2.46-64.38-26.89-61.5-62.25c2.25-27.61,24.46-50.02,52.05-52.51
		c13.25-1.19,25.67,2.12,35.91,8.57c6.84,4.31,15.89,1.69,18.97-5.79c0.39-0.94,0.76-1.9,1.13-2.85c1.1-2.81,2.14-5.46,3.46-7.73
		c2.54-4.85,6.34-8.94,11-11.83c14.08-8.76,32.92-4.6,42,9.27c0.03,0.05,0.07,0.1,0.1,0.15
		C384.56,260.02,385.82,266.46,385.24,272.68z"/>
</g>
</svg>
