<svg id="katman_1" data-name="katman 1" xmlns="http://www.w3.org/2000/svg" xmlns:xlink="http://www.w3.org/1999/xlink" viewBox="0 0 307.57 360.38"><defs><style>.cls-1{fill:none;}.cls-2{clip-path:url(#clip-path);}.cls-3{fill:#fff;}</style><clipPath id="clip-path" transform="translate(-132.51 -80.57)"><path class="cls-1" d="M444.07,0H94.27A94.14,94.14,0,0,0,.12,94.17V444a94.15,94.15,0,0,0,94.15,94.15h349.8A94.15,94.15,0,0,0,538.22,444V94.17A94.14,94.14,0,0,0,444.07,0Z"/></clipPath></defs><g class="cls-2"><path class="cls-3" d="M291.06,269.46c.09.05,10.16,5.34,16.06,10.58a.5.5,0,0,1,.16.41l5.18.52a52.65,52.65,0,0,0-24-16.28l2.18,4.77A.47.47,0,0,1,291.06,269.46Z" transform="translate(-132.51 -80.57)"/><path class="cls-3" d="M272.46,289l20.75,14.35a.52.52,0,0,1,.26-.2l17.09-4.81.11,0c-.18-5.11-3.07-15.2-3.73-17.46a.35.35,0,0,1-.14,0,.49.49,0,0,1-.32-.12c-5.82-5.16-15.77-10.39-15.87-10.44a.5.5,0,0,1-.26-.45c-5.13-.11-15.5,1.94-17.82,2.41a.28.28,0,0,1,0,.09v16.35A.48.48,0,0,1,272.46,289Z" transform="translate(-132.51 -80.57)"/><path class="cls-3" d="M253.24,270.32A62.21,62.21,0,0,0,238,280.74a.49.49,0,0,1-.34.14.38.38,0,0,1-.21-.05c-2.11,4.55-3.75,15-4.1,17.34h.06l17.08,5a.46.46,0,0,1,.26.19L271.66,289a.5.5,0,0,1-.08-.27V272.37s0-.06,0-.09a111.48,111.48,0,0,0-18.08-2.37A.51.51,0,0,1,253.24,270.32Z" transform="translate(-132.51 -80.57)"/><path class="cls-3" d="M237.35,280.06a64,64,0,0,1,15.46-10.6.44.44,0,0,1,.43,0l2.43-4.78A52.55,52.55,0,0,0,231.61,281l5.62-.59A.47.47,0,0,1,237.35,280.06Z" transform="translate(-132.51 -80.57)"/><path class="cls-3" d="M223.5,316.93a.48.48,0,0,1,.1-.33l-4.16-3.34c0,.49,0,1,0,1.48A52.46,52.46,0,0,0,227,342.06l1.63-5.87a.49.49,0,0,1-.32-.29A74.47,74.47,0,0,1,223.5,316.93Z" transform="translate(-132.51 -80.57)"/><path class="cls-3" d="M258.28,328.41l-7.73-24.34a.39.39,0,0,1-.15,0,.27.27,0,0,1-.13,0l-17.08-5A.45.45,0,0,1,233,299c-3.38,3.79-7.92,15.08-8.85,17.45a.5.5,0,0,1,.31.41,72.8,72.8,0,0,0,4.79,18.69.47.47,0,0,1-.07.46c5.27,4,15.07,7.67,17.26,8.45a.75.75,0,0,1,.07-.12L258,328.58A.46.46,0,0,1,258.28,328.41Z" transform="translate(-132.51 -80.57)"/><path class="cls-3" d="M282.35,360.71a37.17,37.17,0,0,1-7,.41c-5.94,0-13.31-.37-13.77-.39a.49.49,0,0,1-.37-.2l-5.71,4.21a52.82,52.82,0,0,0,33,0l-6-4.21A.5.5,0,0,1,282.35,360.71Z" transform="translate(-132.51 -80.57)"/><path class="cls-3" d="M285.18,329.14a.58.58,0,0,1-.09-.28H258.91a.47.47,0,0,1-.09.28l-11.53,15.77a.49.49,0,0,1-.13.12c3.05,4.57,12.21,13.12,14.12,14.89a.44.44,0,0,1,.38-.16c.17,0,17.34.87,20.44,0a.48.48,0,0,1,.54.21c2.87-2,12.05-12.48,13.86-14.56l-.08-.09Z" transform="translate(-132.51 -80.57)"/><path class="cls-3" d="M314.5,335.47c2.56-4.25,5.32-18.52,5.35-18.67a.5.5,0,0,1,.32-.37c-1.77-5.33-7.89-15.12-9.23-17.23l-.13.05-17.07,4.82a.32.32,0,0,1-.13,0,.36.36,0,0,1-.15,0l-7.74,24.34a.41.41,0,0,1,.25.18l11.25,16.2a.61.61,0,0,1,0,.12c5.12-1.78,15.12-7.67,17.24-8.94A.47.47,0,0,1,314.5,335.47Z" transform="translate(-132.51 -80.57)"/><path class="cls-3" d="M320.69,316.59a.47.47,0,0,1,.1.4c-.12.59-2.82,14.58-5.46,19a.43.43,0,0,1-.27.21l1.95,6a52.46,52.46,0,0,0,7.7-27.43c0-.45,0-.9,0-1.35Z" transform="translate(-132.51 -80.57)"/><path class="cls-3" d="M351.57,201.32a5.42,5.42,0,1,0,7.53-1.48A5.42,5.42,0,0,0,351.57,201.32Z" transform="translate(-132.51 -80.57)"/><path class="cls-3" d="M336.09,192.23a3.39,3.39,0,1,0,4.71-.93A3.38,3.38,0,0,0,336.09,192.23Z" transform="translate(-132.51 -80.57)"/><circle class="cls-3" cx="288.66" cy="113.86" r="18.91"/><path class="cls-3" d="M393.79,268l-.18-.38a122.69,122.69,0,0,0-29.17-39A131.43,131.43,0,0,0,326.6,204.7a5.41,5.41,0,1,1-3.34-1.34,138.21,138.21,0,0,0-27.76-7.43,144,144,0,0,0-63.25,3.89A77.25,77.25,0,0,1,248,180.5c12.54-10.83,28.23-16.08,45.55-15.24,6.81.22,16.07,3,20.31,8.43a42.24,42.24,0,0,0,67-51.5c-18.63-24.5-49.88-40-83.56-41.44-39.06-1.83-75.16,10.52-104.49,35.72C164.64,141,145.15,176.2,136.39,218.24c-6.84,33.39-4.4,85.94,5.43,117.72a116.8,116.8,0,0,0,9.33,30.71l.18.38a130.09,130.09,0,0,0,29.17,39C205.32,428.57,238.06,441,272.66,441c34.36,0,66.92-12.35,91.62-34.72a123.39,123.39,0,0,0,29.45-39.43,115.73,115.73,0,0,0,11-49.48,114.53,114.53,0,0,0-6.55-38.25C396.93,275.37,395.47,271.68,393.79,268ZM324.06,225a8.8,8.8,0,1,1,2.4,12.21A8.79,8.79,0,0,1,324.06,225Zm-29.66-6.32a18.91,18.91,0,1,1-18.91,18.91A18.91,18.91,0,0,1,294.4,218.72Zm88.84,46a30.64,30.64,0,0,1-29.77,28,37.19,37.19,0,0,1-4.09,0c-1.41-.07-2.88-.19-4.38-.32-2.05-.17-4.12-.33-6.15-.38-12-.16-9.84,14.27-9.84,14.27h0a58.46,58.46,0,0,1,0,15.3,57.61,57.61,0,1,1-26.47-56.49,12.92,12.92,0,0,0,19-5.8c.39-.94.76-1.89,1.13-2.84a60.07,60.07,0,0,1,3.46-7.74,30.78,30.78,0,0,1,53-2.56l.09.15A30.5,30.5,0,0,1,383.24,264.68Z" transform="translate(-132.51 -80.57)"/></g></svg>